<?xml version="1.0" encoding="iso-8859-1"?>
<!-- Generator: Adobe Illustrator 19.0.0, SVG Export Plug-In . SVG Version: 6.00 Build 0)  -->
<svg version="1.1" id="Layer_1" xmlns="http://www.w3.org/2000/svg" xmlns:xlink="http://www.w3.org/1999/xlink" x="0px" y="0px"
	 viewBox="0 0 511.999 511.999" style="enable-background:new 0 0 511.999 511.999;" xml:space="preserve">
<path style="fill:#20AB6C;" d="M144.384,290.803h-36.678c0-33.381,12.54-76.969,34.403-119.592
	c26.533-51.723,65.084-98.98,111.49-136.663c4.578-3.716,10.666-5.004,16.354-3.466c5.692,1.541,10.295,5.726,12.372,11.245
	c11.142,29.615,82.303,133.135,122.064,168.751l-24.474,27.32c-28.503-25.533-63.646-73.533-77.433-92.984
	c-14.862-20.97-31.82-46.613-43.33-67.266C175.911,154.106,144.384,247.226,144.384,290.803z"/>
<path style="opacity:0.1;enable-background:new    ;" d="M144.384,290.803h-36.678c0-33.381,12.54-76.969,34.403-119.592
	c26.533-51.723,65.084-98.98,111.49-136.663c4.578-3.716,10.666-5.004,16.354-3.466c5.692,1.541,10.295,5.726,12.372,11.245
	c11.142,29.615,82.303,133.135,122.064,168.751l-24.474,27.32c-28.503-25.533-63.646-73.533-77.433-92.984
	c-14.862-20.97-31.82-46.613-43.33-67.266C175.911,154.106,144.384,247.226,144.384,290.803z"/>
<path style="opacity:0.1;enable-background:new    ;" d="M262.602,41.252c-3.536-1.318-7.614-2.735-12.111-4.148
	c-41.703,34.512-76.885,76.779-102.46,123.012c12.337-0.99,24.865-3.539,37.003-8.359c5.8-2.303,11.312-5.042,16.54-8.119
	c15.53-22.203,34.576-44.502,57.577-65.492c0.617,1.107,1.257,2.236,1.905,3.37c4.176-6.891,7.559-13.248,10.17-18.546
	C275.352,54.601,271.346,44.512,262.602,41.252z"/>
<circle style="fill:#E3637B;" cx="126.041" cy="388.369" r="116.13"/>
<path style="opacity:0.1;enable-background:new    ;" d="M134.359,496.186c-64.136,0-116.129-51.993-116.129-116.129
	c0-29.953,11.342-57.255,29.963-77.852C24.687,323.456,9.916,354.187,9.916,388.37c0,64.136,51.993,116.129,116.129,116.129
	c34.183,0,64.914-14.771,86.165-38.277C191.614,484.843,164.312,496.186,134.359,496.186z"/>
<g>
	<path style="fill:#FFFFFF;" d="M61.423,409.43H40.677c-4.143,0-7.5-3.357-7.5-7.5s3.357-7.5,7.5-7.5h20.745
		c4.143,0,7.5,3.357,7.5,7.5S65.565,409.43,61.423,409.43z"/>
	<path style="fill:#FFFFFF;" d="M211.413,409.43h-20.745c-4.142,0-7.5-3.357-7.5-7.5s3.357-7.5,7.5-7.5h20.745
		c4.143,0,7.5,3.357,7.5,7.5S215.556,409.43,211.413,409.43z"/>
</g>
<circle style="fill:#E3637B;" cx="385.951" cy="319.009" r="116.13"/>
<path style="opacity:0.1;enable-background:new    ;" d="M394.269,426.821c-64.136,0-116.129-51.993-116.129-116.129
	c0-29.953,11.342-57.255,29.963-77.852c-23.505,21.251-38.277,51.982-38.277,86.165c0,64.136,51.993,116.129,116.129,116.129
	c34.183,0,64.915-14.771,86.165-38.277C451.525,415.478,424.222,426.821,394.269,426.821z"/>
<g>
	<path style="fill:#FFFFFF;" d="M321.333,340.066h-20.745c-4.143,0-7.5-3.357-7.5-7.5s3.357-7.5,7.5-7.5h20.745
		c4.142,0,7.5,3.357,7.5,7.5S325.476,340.066,321.333,340.066z"/>
	<path style="fill:#FFFFFF;" d="M471.324,340.066h-20.745c-4.142,0-7.5-3.357-7.5-7.5s3.357-7.5,7.5-7.5h20.745
		c4.142,0,7.5,3.357,7.5,7.5S475.466,340.066,471.324,340.066z"/>
</g>
<path style="fill:#20AB6C;" d="M277.15,28.471c8.445,3.97,11.605,14.355,6.802,22.357c-13.867,23.101-45.527,66.861-93.222,81.373
	c-47.696,14.512-98.363-4.197-122.747-15.66c-8.445-3.97-11.605-14.355-6.802-22.357c13.867-23.101,45.527-66.861,93.222-81.373
	C202.099-1.702,252.766,17.008,277.15,28.471z"/>
<path style="opacity:0.2;enable-background:new    ;" d="M122.263,95.313c-3.215,0-6.187-2.084-7.172-5.318
	c-1.206-3.963,1.029-8.153,4.991-9.358l100.601-30.61c3.959-1.207,8.152,1.029,9.358,4.991c1.206,3.963-1.029,8.153-4.991,9.358
	l-100.601,30.61C123.722,95.207,122.987,95.313,122.263,95.313z"/>
<path d="M201.041,385.366c4.142,0,7.5-3.357,7.5-7.5v-13.185c0-4.143-3.357-7.5-7.5-7.5s-7.5,3.357-7.5,7.5v13.185
	C193.541,382.009,196.898,385.366,201.041,385.366z M118.546,377.866c0,2.543-2.068,4.611-4.611,4.611s-4.612-2.068-4.612-4.611
	c0-4.142-3.357-7.5-7.5-7.5c-4.142,0-7.5,3.357-7.5,7.5c0,10.813,8.798,19.611,19.612,19.611c4.567,0,8.774-1.569,12.111-4.197
	c3.338,2.628,7.545,4.197,12.112,4.197c10.813,0,19.611-8.798,19.611-19.611c0-4.142-3.357-7.5-7.5-7.5s-7.5,3.357-7.5,7.5
	c0,2.543-2.068,4.611-4.611,4.611s-4.612-2.068-4.612-4.611c0-4.142-3.357-7.5-7.5-7.5
	C121.903,370.366,118.546,373.724,118.546,377.866z M51.05,357.181c-4.142,0-7.5,3.357-7.5,7.5v13.185c0,4.142,3.357,7.5,7.5,7.5
	c4.142,0,7.5-3.357,7.5-7.5v-13.185C58.55,360.539,55.192,357.181,51.05,357.181z M399.745,196.15
	c-37.581-38.684-90.383-115.806-106.653-148.17c0.914-3.937,0.8-8.089-0.397-12.024c-1.91-6.277-6.413-11.479-12.355-14.272
	C253.8,9.208,201.865-9.472,152.22,5.637c-49.644,15.104-82.377,59.542-97.47,84.688c-3.379,5.629-4.221,12.457-2.311,18.732
	c1.91,6.276,6.412,11.478,12.354,14.271c18.535,8.713,49.452,20.44,83.327,21.585c-4.5,7.553-8.749,15.207-12.683,22.876
	c-17.454,34.027-29.227,69.038-33.463,99.314C45.289,278.334,2.417,328.437,2.417,388.37c0,68.169,55.46,123.629,123.628,123.629
	c68.169,0,123.629-55.46,123.629-123.629c0-58.478-40.814-107.6-95.452-120.386c6.705-36.67,28.566-91.601,71.73-144.043
	c13.166-8.408,24.611-18.583,34.3-28.98c9.807,16.296,22.599,35.726,36.109,54.788c8.477,11.961,24.419,33.861,42.067,55.133
	c-44.647,18.663-76.103,62.786-76.103,114.122c0,68.169,55.46,123.629,123.629,123.629s123.629-55.46,123.629-123.629
	C509.585,255.498,461.448,203.03,399.745,196.15z M234.675,388.37c0,59.898-48.732,108.63-108.63,108.63
	S17.416,448.268,17.416,388.37s48.731-108.629,108.629-108.629S234.675,328.471,234.675,388.37z M139.438,265.469
	c-4.4-0.476-8.868-0.728-13.393-0.728c-2.885,0-5.744,0.107-8.58,0.303c4.463-27.681,15.402-59.382,31.317-90.41
	c5.208-10.152,10.985-20.282,17.192-30.168c8.947-0.761,17.981-2.365,26.939-5.091c1.103-0.336,2.188-0.703,3.274-1.067
	C163.084,185.413,145.482,232.392,139.438,265.469z M188.546,125.027c-44.835,13.639-92.783-3.715-117.372-15.273
	c-2.141-1.007-3.698-2.805-4.386-5.063c-0.687-2.258-0.396-4.619,0.822-6.646c13.983-23.297,44.137-64.416,88.975-78.059
	c11.672-3.551,23.547-5.001,35.173-5.001c33.037,0,64.011,11.723,82.2,20.273c2.141,1.007,3.698,2.805,4.386,5.063
	c0.686,2.259,0.395,4.619-0.823,6.647C263.538,70.264,233.384,111.382,188.546,125.027z M308.6,141.076
	c-14.5-20.458-28.132-41.299-37.999-58.052c5.396-6.68,10.053-13.191,13.973-19.127c19.634,35.224,61.741,95.105,94.234,131.692
	c-8.659,0.496-17.081,1.889-25.177,4.084C334.875,177.485,317.532,153.679,308.6,141.076z M385.956,427.635
	c-59.898,0-108.63-48.732-108.63-108.63s48.732-108.629,108.63-108.629s108.63,48.731,108.63,108.629
	S445.854,427.635,385.956,427.635z M460.951,287.817c-4.143,0-7.5,3.357-7.5,7.5v13.184c0,4.142,3.357,7.5,7.5,7.5
	c4.142,0,7.5-3.357,7.5-7.5v-13.184C468.451,291.174,465.094,287.817,460.951,287.817z M410.179,301.001c-4.142,0-7.5,3.357-7.5,7.5
	c0,2.543-2.069,4.612-4.612,4.612s-4.611-2.069-4.611-4.612c0-4.143-3.357-7.5-7.5-7.5c-4.142,0-7.5,3.357-7.5,7.5
	c0,2.543-2.069,4.612-4.612,4.612s-4.611-2.069-4.611-4.612c0-4.143-3.357-7.5-7.5-7.5c-4.142,0-7.5,3.357-7.5,7.5
	c0,10.814,8.797,19.612,19.611,19.612c4.567,0,8.774-1.569,12.112-4.197c3.337,2.628,7.544,4.197,12.111,4.197
	c10.814,0,19.612-8.798,19.612-19.612C417.678,304.358,414.321,301.001,410.179,301.001z M310.96,287.817
	c-4.142,0-7.5,3.357-7.5,7.5v13.184c0,4.142,3.357,7.5,7.5,7.5s7.5-3.357,7.5-7.5v-13.184
	C318.46,291.174,315.103,287.817,310.96,287.817z"/>
<g>
</g>
<g>
</g>
<g>
</g>
<g>
</g>
<g>
</g>
<g>
</g>
<g>
</g>
<g>
</g>
<g>
</g>
<g>
</g>
<g>
</g>
<g>
</g>
<g>
</g>
<g>
</g>
<g>
</g>
</svg>
